<?xml version="1.0" encoding="UTF-8"?>
<!DOCTYPE svg PUBLIC "-//W3C//DTD SVG 1.1//EN" "http://www.w3.org/Graphics/SVG/1.1/DTD/svg11.dtd">
<!-- Creator: CorelDRAW X7 -->
<svg xmlns="http://www.w3.org/2000/svg" xml:space="preserve" width="150mm" height="150mm" version="1.1" style="shape-rendering:geometricPrecision; text-rendering:geometricPrecision; image-rendering:optimizeQuality; fill-rule:evenodd; clip-rule:evenodd"
viewBox="0 0 15000 15000"
 xmlns:xlink="http://www.w3.org/1999/xlink">
 <defs>
  <style type="text/css">
   <![CDATA[
    .fil0 {fill:none}
    .fil4 {fill:#DD9938}
    .fil2 {fill:#DD9938}
    .fil1 {fill:white}
    .fil5 {fill:#DD9938;fill-rule:nonzero}
    .fil3 {fill:white;fill-rule:nonzero}
   ]]>
  </style>
 </defs>
 <g id="Camada_x0020_1">
  <metadata id="CorelCorpID_0Corel-Layer"/>
  <g id="_2707521620128">
   <rect class="fil0" x="1463" y="1463" width="12074" height="12074"/>
   <path class="fil1" d="M3298 6325l-6 618 -5 587 4 1359 -1040 0 10 -1575 -5 -535 -5 -454 -226 6 -323 8 -48 1c-55,0 -82,-23 -82,-71 0,-43 15,-66 47,-72 10,-3 37,-5 84,-6l2096 0c73,1 116,6 130,12 23,10 34,33 34,68 0,45 -29,68 -87,68l-149 -6 -395 -8 -34 0zm1791 -215c179,0 353,44 520,132 247,131 434,332 565,604 103,217 155,454 155,709 0,206 -39,405 -118,597 -117,287 -300,505 -549,654 -182,110 -373,164 -573,164 -212,0 -413,-62 -602,-186 -252,-163 -431,-392 -538,-688 -66,-180 -99,-366 -99,-558 0,-242 51,-472 155,-691 128,-268 314,-469 559,-603 163,-88 337,-132 525,-134zm-133 134l-10 1286 8 1070 2 241c39,8 75,12 111,12 251,0 475,-80 673,-241 180,-148 311,-338 392,-569 56,-163 85,-331 85,-505 0,-229 -48,-443 -143,-640 -117,-243 -282,-421 -495,-536 -158,-87 -326,-130 -502,-130 -41,0 -81,4 -121,12zm2971 81l-6 618 -5 587 4 1359 -1040 0 10 -1575 -5 -535 -5 -454 -226 6 -323 8 -48 1c-55,0 -83,-23 -83,-71 0,-43 16,-66 48,-72 10,-3 37,-5 84,-6l2096 0c73,1 116,6 130,12 23,10 34,33 34,68 0,45 -29,68 -87,68l-149 -6 -395 -8 -34 0zm1848 -296l1367 2860 -1186 0 -165 -360 -572 0 -505 -2 -86 -2 -113 240c-34,72 -57,117 -70,134 -13,18 -30,27 -49,27 -39,0 -59,-20 -59,-60 0,-16 11,-49 34,-95 22,-47 100,-201 234,-461l1036 -2014 134 -267zm-532 1301l-298 578 -238 476 509 12 509 -12 -482 -1054zm3103 -1139l-5 413 -5 658 1 481 6 1017 122 2 730 -14 133 -2c67,0 100,23 100,71 0,41 -18,64 -54,68 -8,2 -34,3 -79,4l-1996 0 4 -751 3 -460 4 -522 -5 -795 1 -170 1040 0z"/>
   <path class="fil2" d="M3376 4806c22,0 39,18 39,40 0,23 -17,41 -39,41 -21,0 -39,-18 -39,-41 0,-22 18,-40 39,-40z"/>
   <path class="fil2" d="M3218 5120c22,0 39,18 39,41 0,22 -17,40 -39,40 -21,0 -39,-18 -39,-40 0,-23 18,-41 39,-41z"/>
   <path class="fil2" d="M3595 4502c22,0 39,18 39,40 0,23 -17,41 -39,41 -21,0 -39,-18 -39,-41 0,-22 18,-40 39,-40z"/>
   <path class="fil2" d="M3810 4197c22,0 39,19 39,41 0,23 -17,41 -39,41 -21,0 -39,-18 -39,-41 0,-22 18,-41 39,-41z"/>
   <path class="fil2" d="M4055 3937c21,0 39,18 39,41 0,22 -18,41 -39,41 -22,0 -39,-19 -39,-41 0,-23 17,-41 39,-41z"/>
   <path class="fil2" d="M4304 3681c22,0 39,18 39,40 0,23 -17,41 -39,41 -21,0 -39,-18 -39,-41 0,-22 18,-40 39,-40z"/>
   <path class="fil2" d="M4585 3448c21,0 39,18 39,40 0,23 -18,41 -39,41 -22,0 -39,-18 -39,-41 0,-22 17,-40 39,-40z"/>
   <path class="fil2" d="M4872 3241c21,0 39,19 39,41 0,23 -18,41 -39,41 -22,0 -39,-18 -39,-41 0,-22 17,-41 39,-41z"/>
   <path class="fil2" d="M5174 3049c22,0 39,19 39,41 0,23 -17,41 -39,41 -21,0 -39,-18 -39,-41 0,-22 18,-41 39,-41z"/>
   <path class="fil2" d="M5482 2883c22,0 39,19 39,41 0,23 -17,41 -39,41 -21,0 -39,-18 -39,-41 0,-22 18,-41 39,-41z"/>
   <path class="fil2" d="M5809 2742c22,0 39,18 39,40 0,23 -17,41 -39,41 -21,0 -39,-18 -39,-41 0,-22 18,-40 39,-40z"/>
   <path class="fil2" d="M6141 2641c21,0 39,18 39,40 0,23 -18,41 -39,41 -22,0 -39,-18 -39,-41 0,-22 17,-40 39,-40z"/>
   <path class="fil2" d="M6485 2552c21,0 39,18 39,40 0,23 -18,41 -39,41 -22,0 -39,-18 -39,-41 0,-22 17,-40 39,-40z"/>
   <path class="fil2" d="M6820 2482c21,0 38,19 38,41 0,23 -17,41 -38,41 -22,0 -39,-18 -39,-41 0,-22 17,-41 39,-41z"/>
   <path class="fil2" d="M7176 2439c21,0 39,18 39,41 0,22 -18,40 -39,40 -22,0 -39,-18 -39,-40 0,-23 17,-41 39,-41z"/>
   <path class="fil2" d="M7527 2427c22,0 39,18 39,41 0,22 -17,40 -39,40 -21,0 -39,-18 -39,-40 0,-23 18,-41 39,-41z"/>
   <path class="fil2" d="M7875 2439c22,0 39,18 39,41 0,22 -17,40 -39,40 -21,0 -39,-18 -39,-40 0,-23 18,-41 39,-41z"/>
   <path class="fil2" d="M8221 2482c21,0 39,19 39,41 0,23 -18,41 -39,41 -22,0 -39,-18 -39,-41 0,-22 17,-41 39,-41z"/>
   <path class="fil2" d="M8575 2552c21,0 39,18 39,40 0,23 -18,41 -39,41 -22,0 -39,-18 -39,-41 0,-22 17,-40 39,-40z"/>
   <path class="fil2" d="M8914 2641c22,0 39,18 39,40 0,23 -17,41 -39,41 -21,0 -39,-18 -39,-41 0,-22 18,-40 39,-40z"/>
   <path class="fil2" d="M9247 2742c21,0 39,18 39,40 0,23 -18,41 -39,41 -22,0 -39,-18 -39,-41 0,-22 17,-40 39,-40z"/>
   <path class="fil2" d="M9562 2883c21,0 39,19 39,41 0,23 -18,41 -39,41 -22,0 -39,-18 -39,-41 0,-22 17,-41 39,-41z"/>
   <path class="fil2" d="M9878 3049c22,0 39,19 39,41 0,23 -17,41 -39,41 -21,0 -39,-18 -39,-41 0,-22 18,-41 39,-41z"/>
   <path class="fil2" d="M10179 3241c22,0 39,19 39,41 0,23 -17,41 -39,41 -21,0 -38,-18 -38,-41 0,-22 17,-41 38,-41z"/>
   <path class="fil2" d="M10460 3448c21,0 38,18 38,40 0,23 -17,41 -38,41 -22,0 -39,-18 -39,-41 0,-22 17,-40 39,-40z"/>
   <path class="fil2" d="M10729 3681c21,0 39,18 39,40 0,23 -18,41 -39,41 -22,0 -39,-18 -39,-41 0,-22 17,-40 39,-40z"/>
   <path class="fil2" d="M10980 3937c21,0 39,18 39,41 0,22 -18,41 -39,41 -22,0 -39,-19 -39,-41 0,-23 17,-41 39,-41z"/>
   <path class="fil2" d="M11214 4197c22,0 39,19 39,41 0,23 -17,41 -39,41 -21,0 -39,-18 -39,-41 0,-22 18,-41 39,-41z"/>
   <path class="fil2" d="M11428 4502c22,0 39,18 39,40 0,23 -17,41 -39,41 -21,0 -39,-18 -39,-41 0,-22 18,-40 39,-40z"/>
   <path class="fil2" d="M11629 4806c21,0 39,18 39,40 0,23 -18,41 -39,41 -22,0 -39,-18 -39,-41 0,-22 17,-40 39,-40z"/>
   <path class="fil2" d="M11801 5167c22,0 39,18 39,41 0,22 -17,40 -39,40 -21,0 -39,-18 -39,-40 0,-23 18,-41 39,-41z"/>
   <path class="fil2" d="M5208 5503c22,0 39,18 39,41 0,22 -17,41 -39,41 -21,0 -39,-19 -39,-41 0,-23 18,-41 39,-41z"/>
   <path class="fil2" d="M3449 5504c22,0 39,18 39,40 0,23 -17,41 -39,41 -21,0 -39,-18 -39,-41 0,-22 18,-40 39,-40z"/>
   <path class="fil2" d="M3801 5499c22,0 39,18 39,41 0,22 -17,40 -39,40 -21,0 -39,-18 -39,-40 0,-23 18,-41 39,-41z"/>
   <path class="fil2" d="M4153 5502c21,0 39,19 39,41 0,23 -18,41 -39,41 -22,0 -39,-18 -39,-41 0,-22 17,-41 39,-41z"/>
   <path class="fil2" d="M4505 5503c21,0 39,18 39,41 0,22 -18,41 -39,41 -22,0 -39,-19 -39,-41 0,-23 17,-41 39,-41z"/>
   <path class="fil2" d="M4857 5503c21,0 38,18 38,41 0,22 -17,40 -38,40 -22,0 -39,-18 -39,-40 0,-23 17,-41 39,-41z"/>
   <path class="fil2" d="M5560 5498c22,0 39,18 39,40 0,23 -17,41 -39,41 -21,0 -39,-18 -39,-41 0,-22 18,-40 39,-40z"/>
   <path class="fil2" d="M5912 5498c21,0 39,18 39,41 0,22 -18,40 -39,40 -22,0 -39,-18 -39,-40 0,-23 17,-41 39,-41z"/>
   <path class="fil2" d="M6264 5497c21,0 39,18 39,40 0,23 -18,41 -39,41 -22,0 -39,-18 -39,-41 0,-22 17,-40 39,-40z"/>
   <path class="fil2" d="M6616 5498c21,0 39,18 39,40 0,23 -18,41 -39,41 -22,0 -39,-18 -39,-41 0,-22 17,-40 39,-40z"/>
   <path class="fil2" d="M6967 5498c22,0 39,18 39,41 0,22 -17,41 -39,41 -21,0 -39,-19 -39,-41 0,-23 18,-41 39,-41z"/>
   <path class="fil2" d="M7319 5503c22,0 39,18 39,41 0,22 -17,41 -39,41 -21,0 -39,-19 -39,-41 0,-23 18,-41 39,-41z"/>
   <path class="fil2" d="M7671 5498c21,0 39,18 39,41 0,22 -18,40 -39,40 -22,0 -39,-18 -39,-40 0,-23 17,-41 39,-41z"/>
   <path class="fil2" d="M8023 5498c21,0 39,18 39,40 0,23 -18,41 -39,41 -22,0 -39,-18 -39,-41 0,-22 17,-40 39,-40z"/>
   <path class="fil2" d="M8375 5498c21,0 39,18 39,41 0,22 -18,40 -39,40 -22,0 -39,-18 -39,-40 0,-23 17,-41 39,-41z"/>
   <path class="fil2" d="M8726 5498c22,0 39,18 39,41 0,22 -17,40 -39,40 -21,0 -39,-18 -39,-40 0,-23 18,-41 39,-41z"/>
   <path class="fil2" d="M9078 5503c22,0 39,18 39,41 0,22 -17,40 -39,40 -21,0 -39,-18 -39,-40 0,-23 18,-41 39,-41z"/>
   <path class="fil2" d="M9430 5498c22,0 39,18 39,41 0,22 -17,40 -39,40 -21,0 -39,-18 -39,-40 0,-23 18,-41 39,-41z"/>
   <path class="fil2" d="M9782 5499c21,0 39,18 39,40 0,23 -18,41 -39,41 -22,0 -39,-18 -39,-41 0,-22 17,-40 39,-40z"/>
   <path class="fil2" d="M10134 5502c21,0 39,18 39,41 0,22 -18,40 -39,40 -22,0 -39,-18 -39,-40 0,-23 17,-41 39,-41z"/>
   <path class="fil2" d="M10485 5498c22,0 39,18 39,41 0,22 -17,40 -39,40 -21,0 -38,-18 -38,-40 0,-23 17,-41 38,-41z"/>
   <path class="fil2" d="M10837 5503c22,0 39,19 39,41 0,23 -17,41 -39,41 -21,0 -39,-18 -39,-41 0,-22 18,-41 39,-41z"/>
   <path class="fil2" d="M11189 5498c22,0 39,18 39,41 0,22 -17,40 -39,40 -21,0 -39,-18 -39,-40 0,-23 18,-41 39,-41z"/>
   <path class="fil2" d="M11541 5496c21,0 39,18 39,40 0,23 -18,41 -39,41 -22,0 -39,-18 -39,-41 0,-22 17,-40 39,-40z"/>
   <path class="fil2" d="M3097 5504c22,0 39,18 39,40 0,23 -17,41 -39,41 -21,0 -38,-18 -38,-41 0,-22 17,-40 38,-40z"/>
   <path class="fil2" d="M11893 5496c21,0 39,18 39,40 0,23 -18,41 -39,41 -22,0 -39,-18 -39,-41 0,-22 17,-40 39,-40z"/>
   <path class="fil2" d="M2520 4766c26,0 47,24 47,52 0,29 -21,52 -47,52 -26,0 -47,-23 -47,-52 0,-28 21,-52 47,-52z"/>
   <path class="fil2" d="M2362 5093c26,0 47,24 47,52 0,29 -21,52 -47,52 -26,0 -47,-23 -47,-52 0,-28 21,-52 47,-52z"/>
   <path class="fil2" d="M2693 4494c26,0 47,23 47,52 0,28 -21,52 -47,52 -26,0 -47,-24 -47,-52 0,-29 21,-52 47,-52z"/>
   <path class="fil2" d="M3091 3846c26,0 47,24 47,52 0,29 -21,52 -47,52 -26,0 -47,-23 -47,-52 0,-28 21,-52 47,-52z"/>
   <path class="fil2" d="M3315 3562c26,0 47,23 47,52 0,29 -21,52 -47,52 -26,0 -47,-23 -47,-52 0,-29 21,-52 47,-52z"/>
   <path class="fil2" d="M3555 3295c26,0 47,23 47,52 0,29 -21,52 -47,52 -26,0 -47,-23 -47,-52 0,-29 21,-52 47,-52z"/>
   <path class="fil2" d="M4090 2808c26,0 47,23 47,52 0,28 -21,52 -47,52 -25,0 -46,-24 -46,-52 0,-29 21,-52 46,-52z"/>
   <path class="fil2" d="M4374 2598c26,0 47,23 47,52 0,29 -21,52 -47,52 -25,0 -46,-23 -46,-52 0,-29 21,-52 46,-52z"/>
   <path class="fil2" d="M4672 2403c26,0 47,23 47,52 0,29 -21,52 -47,52 -26,0 -47,-23 -47,-52 0,-29 21,-52 47,-52z"/>
   <path class="fil2" d="M4981 2230c26,0 47,23 47,52 0,29 -21,52 -47,52 -26,0 -47,-23 -47,-52 0,-29 21,-52 47,-52z"/>
   <path class="fil2" d="M5626 1941c26,0 47,23 47,52 0,29 -21,52 -47,52 -25,0 -46,-23 -46,-52 0,-29 21,-52 46,-52z"/>
   <path class="fil2" d="M5967 1830c26,0 47,24 47,52 0,29 -21,52 -47,52 -26,0 -47,-23 -47,-52 0,-28 21,-52 47,-52z"/>
   <path class="fil2" d="M6304 1741c25,0 46,23 46,52 0,28 -21,52 -46,52 -26,0 -47,-24 -47,-52 0,-29 21,-52 47,-52z"/>
   <path class="fil2" d="M6650 1673c26,0 47,23 47,52 0,29 -21,52 -47,52 -25,0 -46,-23 -46,-52 0,-29 21,-52 46,-52z"/>
   <path class="fil2" d="M7002 1625c26,0 47,23 47,52 0,29 -21,52 -47,52 -26,0 -47,-23 -47,-52 0,-29 21,-52 47,-52z"/>
   <path class="fil2" d="M7701 1611c26,0 47,23 47,51 0,29 -21,52 -47,52 -26,0 -47,-23 -47,-52 0,-28 21,-51 47,-51z"/>
   <path class="fil2" d="M8051 1631c26,0 47,23 47,52 0,28 -21,52 -47,52 -26,0 -47,-24 -47,-52 0,-29 21,-52 47,-52z"/>
   <path class="fil2" d="M8400 1684c26,0 47,24 47,52 0,29 -21,52 -47,52 -26,0 -47,-23 -47,-52 0,-28 21,-52 47,-52z"/>
   <path class="fil2" d="M8744 1748c26,0 47,24 47,52 0,29 -21,52 -47,52 -26,0 -47,-23 -47,-52 0,-28 21,-52 47,-52z"/>
   <path class="fil2" d="M9083 1844c26,0 47,23 47,52 0,29 -21,52 -47,52 -26,0 -47,-23 -47,-52 0,-29 21,-52 47,-52z"/>
   <path class="fil2" d="M9741 2092c26,0 47,24 47,52 0,29 -21,52 -47,52 -26,0 -47,-23 -47,-52 0,-28 21,-52 47,-52z"/>
   <path class="fil2" d="M10058 2257c26,0 46,23 46,52 0,28 -20,52 -46,52 -26,0 -47,-24 -47,-52 0,-29 21,-52 47,-52z"/>
   <path class="fil2" d="M10367 2430c26,0 47,23 47,52 0,28 -21,52 -47,52 -26,0 -47,-24 -47,-52 0,-29 21,-52 47,-52z"/>
   <path class="fil2" d="M10659 2630c26,0 47,23 47,52 0,28 -21,51 -47,51 -26,0 -47,-23 -47,-51 0,-29 21,-52 47,-52z"/>
   <path class="fil2" d="M10945 2845c25,0 46,23 46,52 0,29 -21,52 -46,52 -26,0 -47,-23 -47,-52 0,-29 21,-52 47,-52z"/>
   <path class="fil2" d="M11464 3335c26,0 47,23 47,52 0,28 -21,52 -47,52 -25,0 -46,-24 -46,-52 0,-29 21,-52 46,-52z"/>
   <path class="fil2" d="M11709 3608c26,0 47,24 47,52 0,29 -21,52 -47,52 -26,0 -47,-23 -47,-52 0,-28 21,-52 47,-52z"/>
   <path class="fil2" d="M11934 3846c25,0 46,24 46,52 0,29 -21,52 -46,52 -26,0 -47,-23 -47,-52 0,-28 21,-52 47,-52z"/>
   <path class="fil2" d="M12144 4183c26,0 47,24 47,52 0,29 -21,52 -47,52 -26,0 -47,-23 -47,-52 0,-28 21,-52 47,-52z"/>
   <path class="fil2" d="M12501 4766c26,0 47,24 47,52 0,29 -21,52 -47,52 -26,0 -47,-23 -47,-52 0,-28 21,-52 47,-52z"/>
   <path class="fil2" d="M12648 5093c26,0 47,24 47,52 0,29 -21,52 -47,52 -26,0 -47,-23 -47,-52 0,-28 21,-52 47,-52z"/>
   <path class="fil2" d="M2237 5481c26,0 47,23 47,52 0,29 -21,52 -47,52 -26,0 -47,-23 -47,-52 0,-29 21,-52 47,-52z"/>
   <path class="fil2" d="M2884 4183c26,0 47,23 47,52 0,29 -21,52 -47,52 -26,0 -47,-23 -47,-52 0,-29 21,-52 47,-52z"/>
   <path class="fil2" d="M3816 3043c26,0 47,24 47,52 0,29 -21,52 -47,52 -25,0 -46,-23 -46,-52 0,-28 21,-52 46,-52z"/>
   <path class="fil2" d="M5300 2077c25,0 46,24 46,52 0,29 -21,52 -46,52 -26,0 -47,-23 -47,-52 0,-28 21,-52 47,-52z"/>
   <path class="fil2" d="M7344 1608c26,0 47,23 47,52 0,28 -21,52 -47,52 -26,0 -47,-24 -47,-52 0,-29 21,-52 47,-52z"/>
   <path class="fil2" d="M9414 1961c26,0 47,23 47,52 0,28 -21,52 -47,52 -25,0 -46,-24 -46,-52 0,-29 21,-52 46,-52z"/>
   <path class="fil2" d="M11209 3079c26,0 47,24 47,52 0,29 -21,52 -47,52 -25,0 -46,-23 -46,-52 0,-28 21,-52 46,-52z"/>
   <path class="fil2" d="M12320 4495c25,-7 51,10 58,38 7,28 -8,56 -33,63 -25,7 -51,-10 -58,-38 -7,-28 8,-56 33,-63z"/>
   <path class="fil2" d="M12763 5481c26,0 47,23 47,52 0,29 -21,52 -47,52 -26,0 -47,-23 -47,-52 0,-29 21,-52 47,-52z"/>
   <path class="fil2" d="M4024 4213l0 1135c48,6 163,35 163,-32l0 -1092c0,-68 -163,-75 -163,-11zm336 86c0,235 174,82 174,53 0,-54 -29,-51 -41,-107 84,0 104,-14 139,47 101,177 -1,360 -58,360 -106,0 -85,-95 -142,-139 -68,48 -31,175 -133,203l1 -439c0,-68 1,-84 -62,-85 0,54 -10,58 -10,118l-1 353c3,47 11,52 11,107l-10 481c0,54 9,48 10,97 96,-9 60,-134 61,-225 0,-103 0,-207 0,-310 127,70 61,188 153,214 18,-40 5,-50 36,-91 126,-163 235,89 145,302 -37,86 -67,64 -140,46 5,-20 100,-172 -61,-172 -128,0 -116,236 91,236 108,0 162,9 243,-77 141,-151 69,-407 -92,-435 -54,-9 -124,3 -163,-10 -74,-24 -41,-62 -28,-120 96,0 184,11 252,-25 142,-76 203,-500 -212,-500 -66,0 -163,45 -163,118z"/>
   <path class="fil2" d="M10673 4398c-38,-59 -86,-103 -136,-128 -6,-4 -12,-7 -19,-10l-9 -4 -5 -2 -5 -1 -8 -3 -10 -4c-7,-2 -13,-3 -20,-4 -25,-5 -51,-6 -74,-2 -48,6 -89,27 -121,51 -33,24 -56,53 -71,80 -16,27 -24,51 -30,67 -2,8 -4,15 -4,19 -1,2 -1,3 -1,4 -7,19 -11,40 -12,63 -1,88 53,160 123,162 69,2 126,-67 127,-155 2,-83 -47,-153 -111,-162 3,-2 6,-4 9,-5 27,-17 60,-29 96,-30 35,-1 73,10 111,34 37,23 72,57 100,102 14,22 26,47 36,73 10,27 19,56 25,86 12,60 14,125 9,189 -3,32 -8,64 -15,95 -7,32 -15,61 -27,89 -11,28 -24,55 -39,80 -15,25 -32,48 -50,69 -35,42 -75,76 -116,101 -41,26 -82,43 -122,55 -39,11 -76,17 -109,18 -33,2 -63,0 -87,-3 -23,-4 -42,-8 -55,-12 -13,-3 -19,-5 -19,-5 0,0 6,3 18,9 12,6 30,15 54,23 24,8 54,16 88,19 34,4 74,5 117,-2 42,-6 89,-19 135,-42 24,-11 47,-25 70,-42 12,-8 23,-17 35,-26 11,-10 22,-20 33,-31 43,-44 83,-100 113,-166 15,-32 27,-68 36,-104 10,-36 17,-73 22,-111 10,-75 8,-154 -5,-229 -13,-75 -39,-147 -77,-205zm216 364c-43,0 -78,37 -78,82 0,44 35,81 78,81 43,0 78,-37 78,-81 0,-45 -35,-82 -78,-82zm0 -102c43,0 78,-36 78,-81 0,-45 -35,-81 -78,-81 -43,0 -78,36 -78,81 0,45 35,81 78,81z"/>
   <path class="fil2" d="M7736 4008c-1,52 -25,112 -71,154 -25,24 -55,42 -88,53 -13,-102 -28,-210 -40,-322 -4,-36 -8,-73 -12,-110 0,0 1,0 1,0 4,-1 8,-1 12,-1 17,-2 35,1 52,7 36,13 71,40 99,78 14,19 26,41 35,65 4,11 7,24 9,36 1,7 2,13 3,19l0 5 0 3 0 1c0,2 0,-1 0,0l0 12zm-251 220c-17,0 -34,-2 -50,-6 -17,-3 -34,-9 -50,-15l-13 -5 -11 -6 -6 -3 -6 -3 -12 -7c-14,-9 -28,-19 -40,-32 -13,-13 -24,-26 -33,-42 -9,-15 -16,-31 -22,-48 -5,-17 -9,-35 -11,-53 -1,-9 -1,-18 -2,-27 1,-9 0,-18 1,-27 6,-74 35,-145 75,-209 21,-32 44,-63 70,-91 12,-15 26,-29 40,-42 14,-15 29,-29 44,-44 2,-2 4,-4 6,-6 4,43 8,86 13,128 -2,0 -3,1 -4,1l-10 5c-6,3 -12,6 -17,9 -47,28 -81,68 -99,109 -19,41 -24,81 -22,114 3,34 13,62 25,81 12,19 26,29 35,35 3,1 5,2 6,3 2,1 4,1 5,2 3,1 4,1 4,1 0,0 -1,-1 -3,-3 -2,-2 -4,-5 -7,-9 -6,-8 -13,-22 -17,-40 -3,-18 -4,-41 2,-67 5,-25 17,-53 36,-78 18,-24 44,-46 77,-59 0,-1 1,-1 1,-1 5,35 9,70 15,105 10,74 22,146 33,215 6,35 12,69 17,102 0,2 1,4 1,6 -23,6 -47,8 -71,7zm3 -1049c0,-42 1,-84 3,-126 2,-41 6,-83 13,-124 3,-20 7,-40 13,-59 5,-19 13,-37 21,-48 3,-3 5,-5 7,-6l1 0c-2,0 0,0 -1,0 1,0 2,1 2,1 2,1 4,2 7,3 10,6 21,21 29,36 17,32 26,72 30,111 4,39 4,80 1,120l-2 14 -1 16c-2,9 -3,19 -5,29 -3,18 -8,36 -14,53 -13,34 -32,67 -55,98 -14,19 -29,37 -45,56 -2,-58 -4,-116 -4,-174zm56 -367l0 0c0,0 0,0 0,0zm1 4c1,0 0,0 0,0 0,0 0,0 0,0zm272 1088c-4,-18 -10,-36 -17,-52 -7,-17 -15,-33 -24,-48 -38,-59 -93,-103 -155,-121 -16,-5 -31,-8 -47,-9 -16,-1 -32,0 -47,2 -4,1 -8,1 -12,2 -4,-51 -9,-102 -13,-155 45,-47 89,-98 127,-157 26,-39 49,-83 63,-131 7,-24 12,-49 15,-73 1,-12 2,-24 3,-37l0 -16 1 -18c0,-47 -5,-94 -16,-140 -11,-46 -27,-92 -54,-133 -7,-10 -15,-21 -24,-30 -9,-9 -20,-19 -33,-26 -7,-4 -14,-7 -23,-9 -4,0 -8,-1 -13,-1 -2,0 -1,0 -5,0l-2 0c-1,0 -6,1 -8,1 -11,3 -20,8 -26,13 -7,6 -12,12 -17,18 -16,24 -22,47 -28,70 -6,22 -10,44 -12,67 -10,88 -11,173 -9,258 2,75 5,148 10,220 -24,27 -49,54 -74,81 -15,15 -29,30 -43,46 -16,16 -30,33 -44,51 -28,36 -52,74 -72,115 -20,40 -36,83 -46,127 -11,44 -15,90 -13,135 1,11 2,22 4,33 2,11 3,22 6,33 5,22 13,43 22,63 18,41 45,75 76,102l13 10 12 9c8,6 18,11 27,16l12 7 7 3 7 3 13 6 14 5c37,13 75,20 112,21 26,1 52,-1 78,-6 3,19 5,37 8,55 4,32 8,64 10,95 3,30 5,61 4,90 -1,14 -2,29 -4,43 0,3 -1,7 -1,10l-2 10c-2,7 -4,13 -6,19 -8,25 -22,47 -39,64 -18,16 -38,28 -58,33l-8 2 -2 0c0,0 -1,1 -1,0l-1 1 -4 0c-6,1 -10,1 -16,2 -10,0 -20,-1 -30,-3 -9,-2 -18,-6 -26,-10 -9,-4 -16,-9 -22,-15 -13,-12 -21,-26 -25,-40 -2,-7 -3,-14 -3,-21 -1,-4 -1,-7 0,-10l0 -6c0,2 0,0 0,0l0 0 0 -2 0 -3c1,-5 2,-12 4,-17 2,-6 4,-11 6,-15 4,-6 7,-10 11,-14 13,10 29,16 46,16 44,0 80,-37 80,-83 0,-46 -35,-85 -79,-86 -31,-1 -64,9 -93,41 -24,26 -43,63 -48,102 -1,10 -2,20 -1,31 0,10 1,20 3,32 4,19 12,42 24,61 13,20 30,38 50,50 10,7 21,12 33,16 11,4 23,6 35,8 12,1 25,1 37,0 6,0 13,-2 19,-3l4 -1 3 -1 2 0 10 -3c12,-4 24,-10 36,-17 11,-8 22,-17 31,-27 19,-20 34,-46 43,-75 2,-6 4,-14 6,-22l1 -10c1,-4 1,-8 2,-12 1,-14 2,-30 2,-45 1,-60 -6,-123 -14,-188 -2,-18 -5,-37 -7,-56 40,-10 79,-27 113,-51 31,-21 58,-48 79,-80 11,-16 20,-33 27,-50 4,-9 7,-18 10,-28 2,-4 3,-10 4,-14 1,-5 3,-11 3,-14l2 -12 2 -16c1,-10 2,-20 1,-29 0,-20 -2,-39 -6,-57z"/>
   <path class="fil3" d="M6099 11279l-5 25 -535 0 4 -25 153 0 161 -843c16,-80 -9,-120 -75,-120l-65 0c-65,0 -106,40 -121,120l-166 868 -243 0 166 -868c15,-80 -10,-120 -76,-120l-63 0c-66,0 -107,40 -123,120l-165 868 -1 0 -4 18c-9,51 -45,95 -107,131 -61,36 -131,54 -209,54l-184 0 10 -2 118 -18c68,-14 109,-56 122,-125l170 -887c11,-51 47,-94 109,-130 61,-36 131,-54 208,-54l183 0c59,0 111,11 156,33 52,-22 108,-33 166,-33l183 0c78,0 141,18 190,54 47,36 66,79 57,130l-154 804 140 0z"/>
   <path class="fil3" d="M6421 10296l-154 805c-10,51 9,95 57,131 48,35 112,53 189,53l154 0c19,-1 35,-4 49,-10 9,-4 18,-9 27,-15 7,-5 12,-8 13,-8 0,0 0,0 1,0 4,11 9,21 15,30l30 0 0 1 336 0 4 -25 -136 0c-4,-12 -8,-23 -9,-32 -3,-17 -2,-35 3,-53l168 -877 159 0 6 -25 -561 0 -5 25 158 0 -162 845c-15,80 -55,119 -121,119l-64 0c-66,0 -91,-39 -75,-119l162 -845 -2 0 6 -25 -401 0 -5 25 158 0zm658 -231c8,16 6,32 -5,48 -11,16 -30,28 -54,35l-61 19c-40,13 -105,26 -196,41 -107,18 -164,20 -171,7l-25 -47c-6,-13 37,-42 130,-87 79,-36 140,-61 180,-73l60 -19c24,-7 48,-8 71,-3 23,6 38,16 47,32l24 47zm544 260c-44,20 -68,46 -73,78 -13,62 70,159 246,292 177,132 257,244 240,335 -14,74 -54,134 -119,179 -72,51 -166,76 -281,76l-9 0 0 0 -143 0c-42,1 -85,-2 -130,-7 -46,-5 -80,-17 -105,-36l36 -185 242 0 -16 83c-15,79 11,119 77,119l42 0 0 0 0 0c138,-3 216,-48 233,-136 6,-30 -17,-69 -69,-117 0,0 -59,-46 -177,-141 -172,-137 -248,-260 -228,-367 12,-67 51,-121 116,-162 67,-43 150,-65 250,-65l161 0c41,0 84,2 129,7 46,6 81,18 106,37l-35 184 -243 0 15 -83c16,-80 -10,-120 -75,-120 -37,0 -56,0 -56,0 -50,0 -95,10 -134,29zm939 935l-5 25 -560 0 5 -25 159 0 101 -532 0 0 67 -347c5,-18 6,-35 4,-53 -2,-9 -5,-19 -9,-31l-138 0 5 -26 422 0 0 2c10,-1 16,-2 19,-2l98 0 -5 26 -135 0 -15 84c-4,11 -7,23 -10,36l-162 843 159 0zm892 -228l-13 69c-10,51 -46,94 -108,130 -62,36 -131,54 -209,54l-184 0c-78,0 -141,-18 -189,-54 -48,-36 -67,-80 -57,-130l124 -644c9,-51 45,-94 107,-130 61,-36 132,-54 210,-54l183 0c78,0 141,18 189,54 48,36 67,79 57,130l-37 196 -243 0 46 -235c15,-80 -11,-121 -77,-121l-64 0c-66,0 -106,41 -121,121l-138 723c-16,79 9,119 75,119l64 0c66,0 106,-40 121,-119l21 -109 243 0zm772 -156l88 -458c15,-81 -11,-121 -77,-121l-63 0c-66,0 -107,40 -122,121l-88 458 262 0zm308 384l-4 25 -536 0 6 -25 151 0 70 -359 -262 0 -74 384 0 0 -4 17c-9,52 -45,96 -106,131 -62,36 -132,54 -211,54l-183 0 10 -1 118 -19c69,-14 109,-56 122,-125l85 -441 -133 0 5 -25 133 0 10 -54c2,-9 3,-18 4,-27l2 0 65 -339c9,-51 45,-95 108,-131 62,-36 131,-54 209,-54l183 0c78,0 141,18 189,54 48,36 68,80 58,131l-154 804 139 0z"/>
   <path class="fil2" d="M11624 10267c-22,0 -39,-19 -39,-41 0,-23 17,-41 39,-41 21,0 39,18 39,41 0,22 -18,41 -39,41z"/>
   <path class="fil2" d="M11782 9952c-22,0 -39,-18 -39,-40 0,-23 17,-41 39,-41 21,0 39,18 39,41 0,22 -18,40 -39,40z"/>
   <path class="fil2" d="M11405 10571c-22,0 -39,-19 -39,-41 0,-23 17,-41 39,-41 21,0 39,18 39,41 0,22 -18,41 -39,41z"/>
   <path class="fil2" d="M11190 10875c-22,0 -39,-18 -39,-41 0,-22 17,-40 39,-40 21,0 39,18 39,40 0,23 -18,41 -39,41z"/>
   <path class="fil2" d="M10945 11135c-21,0 -39,-18 -39,-41 0,-22 18,-40 39,-40 22,0 39,18 39,40 0,23 -17,41 -39,41z"/>
   <path class="fil4" d="M10696 11392c-22,0 -39,-19 -39,-41 0,-23 17,-41 39,-41 21,0 39,18 39,41 0,22 -18,41 -39,41z"/>
   <path class="fil2" d="M10415 11625c-21,0 -39,-19 -39,-41 0,-23 18,-41 39,-41 22,0 39,18 39,41 0,22 -17,41 -39,41z"/>
   <path class="fil2" d="M10128 11831c-21,0 -39,-18 -39,-41 0,-22 18,-41 39,-41 22,0 39,19 39,41 0,23 -17,41 -39,41z"/>
   <path class="fil2" d="M9826 12023c-22,0 -39,-18 -39,-41 0,-22 17,-41 39,-41 21,0 39,19 39,41 0,23 -18,41 -39,41z"/>
   <path class="fil2" d="M9518 12189c-22,0 -39,-18 -39,-41 0,-22 17,-41 39,-41 21,0 39,19 39,41 0,23 -18,41 -39,41z"/>
   <path class="fil2" d="M9191 12330c-22,0 -39,-18 -39,-40 0,-23 17,-41 39,-41 21,0 39,18 39,41 0,22 -18,40 -39,40z"/>
   <path class="fil2" d="M8859 12432c-21,0 -39,-19 -39,-41 0,-23 18,-41 39,-41 22,0 39,18 39,41 0,22 -17,41 -39,41z"/>
   <path class="fil2" d="M8515 12521c-21,0 -39,-19 -39,-41 0,-23 18,-41 39,-41 22,0 39,18 39,41 0,22 -17,41 -39,41z"/>
   <path class="fil2" d="M8180 12590c-21,0 -38,-18 -38,-41 0,-22 17,-40 38,-40 22,0 39,18 39,40 0,23 -17,41 -39,41z"/>
   <path class="fil2" d="M7824 12633c-21,0 -39,-18 -39,-41 0,-22 18,-40 39,-40 22,0 39,18 39,40 0,23 -17,41 -39,41z"/>
   <path class="fil2" d="M7473 12645c-22,0 -39,-18 -39,-40 0,-23 17,-41 39,-41 21,0 39,18 39,41 0,22 -18,40 -39,40z"/>
   <path class="fil2" d="M7125 12633c-22,0 -39,-18 -39,-41 0,-22 17,-40 39,-40 21,0 39,18 39,40 0,23 -18,41 -39,41z"/>
   <path class="fil2" d="M6779 12590c-21,0 -39,-18 -39,-41 0,-22 18,-40 39,-40 22,0 39,18 39,40 0,23 -17,41 -39,41z"/>
   <path class="fil2" d="M6425 12521c-21,0 -39,-19 -39,-41 0,-23 18,-41 39,-41 22,0 39,18 39,41 0,22 -17,41 -39,41z"/>
   <path class="fil2" d="M6086 12432c-22,0 -39,-19 -39,-41 0,-23 17,-41 39,-41 21,0 39,18 39,41 0,22 -18,41 -39,41z"/>
   <path class="fil2" d="M5753 12330c-21,0 -39,-18 -39,-40 0,-23 18,-41 39,-41 22,0 39,18 39,41 0,22 -17,40 -39,40z"/>
   <path class="fil2" d="M5438 12189c-21,0 -39,-18 -39,-41 0,-22 18,-41 39,-41 22,0 39,19 39,41 0,23 -17,41 -39,41z"/>
   <path class="fil2" d="M5122 12023c-22,0 -39,-18 -39,-41 0,-22 17,-41 39,-41 21,0 39,19 39,41 0,23 -18,41 -39,41z"/>
   <path class="fil2" d="M4821 11831c-22,0 -39,-18 -39,-41 0,-22 17,-41 39,-41 21,0 38,19 38,41 0,23 -17,41 -38,41z"/>
   <path class="fil2" d="M4540 11625c-21,0 -38,-19 -38,-41 0,-23 17,-41 38,-41 22,0 39,18 39,41 0,22 -17,41 -39,41z"/>
   <path class="fil2" d="M4271 11392c-21,0 -39,-19 -39,-41 0,-23 18,-41 39,-41 22,0 39,18 39,41 0,22 -17,41 -39,41z"/>
   <path class="fil2" d="M4020 11135c-21,0 -39,-18 -39,-41 0,-22 18,-40 39,-40 22,0 39,18 39,40 0,23 -17,41 -39,41z"/>
   <path class="fil2" d="M3786 10875c-22,0 -39,-18 -39,-41 0,-22 17,-40 39,-40 21,0 39,18 39,40 0,23 -18,41 -39,41z"/>
   <path class="fil2" d="M3572 10571c-22,0 -39,-19 -39,-41 0,-23 17,-41 39,-41 21,0 38,18 38,41 0,22 -17,41 -38,41z"/>
   <path class="fil2" d="M3371 10267c-21,0 -39,-19 -39,-41 0,-23 18,-41 39,-41 22,0 39,18 39,41 0,22 -17,41 -39,41z"/>
   <path class="fil2" d="M3199 9905c-22,0 -39,-18 -39,-40 0,-23 17,-41 39,-41 21,0 39,18 39,41 0,22 -18,40 -39,40z"/>
   <path class="fil2" d="M9792 9569c-22,0 -39,-18 -39,-41 0,-22 17,-40 39,-40 21,0 39,18 39,40 0,23 -18,41 -39,41z"/>
   <path class="fil2" d="M11551 9569c-22,0 -39,-19 -39,-41 0,-23 17,-41 39,-41 21,0 39,18 39,41 0,22 -18,41 -39,41z"/>
   <path class="fil2" d="M11199 9573c-22,0 -39,-18 -39,-40 0,-23 17,-41 39,-41 21,0 39,18 39,41 0,22 -18,40 -39,40z"/>
   <path class="fil2" d="M10847 9570c-21,0 -39,-18 -39,-41 0,-22 18,-41 39,-41 22,0 39,19 39,41 0,23 -17,41 -39,41z"/>
   <path class="fil2" d="M10495 9569c-21,0 -39,-18 -39,-41 0,-22 18,-40 39,-40 22,0 39,18 39,40 0,23 -17,41 -39,41z"/>
   <path class="fil2" d="M10143 9569c-21,0 -38,-18 -38,-40 0,-23 17,-41 38,-41 22,0 39,18 39,41 0,22 -17,40 -39,40z"/>
   <path class="fil2" d="M9440 9574c-22,0 -39,-18 -39,-40 0,-23 17,-41 39,-41 21,0 39,18 39,41 0,22 -18,40 -39,40z"/>
   <path class="fil2" d="M9088 9574c-21,0 -39,-18 -39,-41 0,-22 18,-40 39,-40 22,0 39,18 39,40 0,23 -17,41 -39,41z"/>
   <path class="fil2" d="M8736 9575c-21,0 -39,-18 -39,-40 0,-23 18,-41 39,-41 22,0 39,18 39,41 0,22 -17,40 -39,40z"/>
   <path class="fil2" d="M8384 9575c-21,0 -39,-19 -39,-41 0,-23 18,-41 39,-41 22,0 39,18 39,41 0,22 -17,41 -39,41z"/>
   <path class="fil2" d="M8033 9574c-22,0 -39,-18 -39,-41 0,-22 17,-40 39,-40 21,0 39,18 39,40 0,23 -18,41 -39,41z"/>
   <path class="fil2" d="M7681 9569c-22,0 -39,-18 -39,-41 0,-22 17,-40 39,-40 21,0 39,18 39,40 0,23 -18,41 -39,41z"/>
   <path class="fil2" d="M7329 9574c-22,0 -39,-18 -39,-40 0,-23 17,-41 39,-41 21,0 39,18 39,41 0,22 -18,40 -39,40z"/>
   <path class="fil2" d="M6977 9574c-21,0 -39,-18 -39,-40 0,-23 18,-41 39,-41 22,0 39,18 39,41 0,22 -17,40 -39,40z"/>
   <path class="fil2" d="M6625 9574c-21,0 -39,-18 -39,-41 0,-22 18,-40 39,-40 22,0 39,18 39,40 0,23 -17,41 -39,41z"/>
   <path class="fil2" d="M6274 9574c-22,0 -39,-18 -39,-41 0,-22 17,-40 39,-40 21,0 39,18 39,40 0,23 -18,41 -39,41z"/>
   <path class="fil2" d="M5922 9569c-22,0 -39,-18 -39,-40 0,-23 17,-41 39,-41 21,0 39,18 39,41 0,22 -18,40 -39,40z"/>
   <path class="fil2" d="M5570 9574c-22,0 -39,-18 -39,-40 0,-23 17,-41 39,-41 21,0 39,18 39,41 0,22 -18,40 -39,40z"/>
   <path class="fil2" d="M5218 9573c-21,0 -39,-18 -39,-40 0,-23 18,-41 39,-41 22,0 39,18 39,41 0,22 -17,40 -39,40z"/>
   <path class="fil2" d="M4866 9570c-21,0 -39,-18 -39,-40 0,-23 18,-41 39,-41 22,0 39,18 39,41 0,22 -17,40 -39,40z"/>
   <path class="fil2" d="M4515 9574c-22,0 -39,-18 -39,-41 0,-22 17,-40 39,-40 21,0 38,18 38,40 0,23 -17,41 -38,41z"/>
   <path class="fil2" d="M4163 9569c-22,0 -39,-18 -39,-41 0,-22 17,-41 39,-41 21,0 39,19 39,41 0,23 -18,41 -39,41z"/>
   <path class="fil2" d="M3811 9574c-22,0 -39,-18 -39,-40 0,-23 17,-41 39,-41 21,0 39,18 39,41 0,22 -18,40 -39,40z"/>
   <path class="fil2" d="M3459 9577c-21,0 -39,-19 -39,-41 0,-22 18,-41 39,-41 22,0 39,19 39,41 0,22 -17,41 -39,41z"/>
   <path class="fil2" d="M11902 9569c-21,0 -38,-19 -38,-41 0,-23 17,-41 38,-41 22,0 39,18 39,41 0,22 -17,41 -39,41z"/>
   <path class="fil2" d="M3107 9577c-21,0 -39,-19 -39,-41 0,-22 18,-41 39,-41 22,0 39,19 39,41 0,22 -17,41 -39,41z"/>
   <path class="fil2" d="M12480 10306c-26,0 -47,-23 -47,-52 0,-29 21,-52 47,-52 26,0 47,23 47,52 0,29 -21,52 -47,52z"/>
   <path class="fil2" d="M12638 9979c-26,0 -47,-23 -47,-52 0,-29 21,-52 47,-52 26,0 47,23 47,52 0,29 -21,52 -47,52z"/>
   <path class="fil2" d="M12307 10579c-26,0 -47,-24 -47,-52 0,-29 21,-52 47,-52 26,0 47,23 47,52 0,28 -21,52 -47,52z"/>
   <path class="fil2" d="M11909 11226c-26,0 -47,-23 -47,-52 0,-29 21,-52 47,-52 26,0 47,23 47,52 0,29 -21,52 -47,52z"/>
   <path class="fil2" d="M11685 11510c-26,0 -47,-23 -47,-52 0,-28 21,-52 47,-52 26,0 47,24 47,52 0,29 -21,52 -47,52z"/>
   <path class="fil2" d="M11445 11777c-26,0 -47,-23 -47,-52 0,-28 21,-52 47,-52 26,0 47,24 47,52 0,29 -21,52 -47,52z"/>
   <path class="fil2" d="M10910 12265c-26,0 -47,-24 -47,-52 0,-29 21,-52 47,-52 25,0 46,23 46,52 0,28 -21,52 -46,52z"/>
   <path class="fil2" d="M10626 12474c-26,0 -47,-23 -47,-52 0,-28 21,-52 47,-52 25,0 46,24 46,52 0,29 -21,52 -46,52z"/>
   <path class="fil2" d="M10328 12669c-26,0 -47,-23 -47,-52 0,-28 21,-52 47,-52 26,0 47,24 47,52 0,29 -21,52 -47,52z"/>
   <path class="fil2" d="M10019 12842c-26,0 -47,-23 -47,-52 0,-28 21,-52 47,-52 26,0 47,24 47,52 0,29 -21,52 -47,52z"/>
   <path class="fil2" d="M9374 13131c-26,0 -47,-23 -47,-52 0,-29 21,-52 47,-52 25,0 46,23 46,52 0,29 -21,52 -46,52z"/>
   <path class="fil2" d="M9033 13242c-26,0 -47,-23 -47,-52 0,-29 21,-52 47,-52 26,0 47,23 47,52 0,29 -21,52 -47,52z"/>
   <path class="fil2" d="M8696 13331c-26,0 -46,-23 -46,-51 0,-29 20,-52 46,-52 26,0 47,23 47,52 0,28 -21,51 -47,51z"/>
   <path class="fil2" d="M8350 13399c-26,0 -47,-23 -47,-52 0,-28 21,-52 47,-52 25,0 46,24 46,52 0,29 -21,52 -46,52z"/>
   <path class="fil2" d="M7998 13447c-26,0 -47,-23 -47,-52 0,-29 21,-52 47,-52 26,0 47,23 47,52 0,29 -21,52 -47,52z"/>
   <path class="fil2" d="M7299 13462c-26,0 -47,-24 -47,-52 0,-29 21,-52 47,-52 26,0 47,23 47,52 0,28 -21,52 -47,52z"/>
   <path class="fil2" d="M6949 13442c-26,0 -47,-24 -47,-52 0,-29 21,-52 47,-52 26,0 47,23 47,52 0,28 -21,52 -47,52z"/>
   <path class="fil2" d="M6600 13388c-26,0 -47,-23 -47,-52 0,-29 21,-52 47,-52 26,0 47,23 47,52 0,29 -21,52 -47,52z"/>
   <path class="fil2" d="M6256 13324c-26,0 -47,-23 -47,-52 0,-29 21,-52 47,-52 26,0 47,23 47,52 0,29 -21,52 -47,52z"/>
   <path class="fil4" d="M5917 13228c-26,0 -47,-23 -47,-52 0,-29 21,-52 47,-52 26,0 47,23 47,52 0,29 -21,52 -47,52z"/>
   <path class="fil2" d="M5259 12980c-26,0 -47,-23 -47,-52 0,-29 21,-52 47,-52 26,0 47,23 47,52 0,29 -21,52 -47,52z"/>
   <path class="fil2" d="M4942 12816c-26,0 -47,-24 -47,-52 0,-29 21,-52 47,-52 26,0 47,23 47,52 0,28 -21,52 -47,52z"/>
   <path class="fil2" d="M4633 12643c-26,0 -47,-24 -47,-52 0,-29 21,-52 47,-52 26,0 47,23 47,52 0,28 -21,52 -47,52z"/>
   <path class="fil2" d="M4341 12443c-26,0 -47,-24 -47,-52 0,-29 21,-52 47,-52 26,0 47,23 47,52 0,28 -21,52 -47,52z"/>
   <path class="fil2" d="M4055 12227c-25,0 -46,-23 -46,-52 0,-28 21,-52 46,-52 26,0 47,24 47,52 0,29 -21,52 -47,52z"/>
   <path class="fil2" d="M3536 11738c-26,0 -47,-24 -47,-52 0,-29 21,-52 47,-52 25,0 46,23 46,52 0,28 -21,52 -46,52z"/>
   <path class="fil2" d="M3291 11464c-26,0 -47,-23 -47,-52 0,-29 21,-52 47,-52 26,0 47,23 47,52 0,29 -21,52 -47,52z"/>
   <path class="fil2" d="M3066 11226c-25,0 -46,-23 -46,-52 0,-29 21,-52 46,-52 26,0 47,23 47,52 0,29 -21,52 -47,52z"/>
   <path class="fil2" d="M2856 10889c-26,0 -47,-23 -47,-52 0,-29 21,-52 47,-52 26,0 47,23 47,52 0,29 -21,52 -47,52z"/>
   <path class="fil2" d="M2499 10306c-26,0 -47,-23 -47,-52 0,-29 21,-52 47,-52 26,0 47,23 47,52 0,29 -21,52 -47,52z"/>
   <path class="fil2" d="M2352 9979c-26,0 -47,-23 -47,-52 0,-29 21,-52 47,-52 26,0 47,23 47,52 0,29 -21,52 -47,52z"/>
   <path class="fil2" d="M12763 9591c-26,0 -47,-23 -47,-52 0,-29 21,-52 47,-52 26,0 47,23 47,52 0,29 -21,52 -47,52z"/>
   <path class="fil2" d="M12116 10889c-26,0 -47,-23 -47,-52 0,-29 21,-52 47,-52 26,0 47,23 47,52 0,29 -21,52 -47,52z"/>
   <path class="fil2" d="M11184 12029c-26,0 -47,-23 -47,-52 0,-29 21,-52 47,-52 25,0 46,23 46,52 0,29 -21,52 -46,52z"/>
   <path class="fil2" d="M9700 12995c-25,0 -46,-23 -46,-52 0,-29 21,-52 46,-52 26,0 47,23 47,52 0,29 -21,52 -47,52z"/>
   <path class="fil2" d="M7656 13465c-26,0 -47,-24 -47,-52 0,-29 21,-52 47,-52 26,0 47,23 47,52 0,28 -21,52 -47,52z"/>
   <path class="fil2" d="M5586 13111c-26,0 -47,-23 -47,-52 0,-28 21,-51 47,-51 25,0 46,23 46,51 0,29 -21,52 -46,52z"/>
   <path class="fil2" d="M3791 11993c-26,0 -47,-23 -47,-52 0,-29 21,-52 47,-52 25,0 46,23 46,52 0,29 -21,52 -46,52z"/>
   <path class="fil2" d="M2680 10577c-25,7 -51,-10 -58,-38 -7,-28 8,-56 33,-63 25,-6 51,11 58,38 7,28 -8,56 -33,63z"/>
   <path class="fil2" d="M2237 9591c-26,0 -47,-23 -47,-52 0,-29 21,-52 47,-52 26,0 47,23 47,52 0,29 -21,52 -47,52z"/>
   <path class="fil5" d="M12467 5573c9,23 -3,49 -26,57 -24,9 -50,-3 -58,-26 -391,-1057 -1073,-1957 -1939,-2587 -841,-611 -1856,-968 -2949,-968 -1093,0 -2108,357 -2949,968 -866,630 -1547,1530 -1939,2587 -8,23 -34,35 -57,26 -24,-8 -36,-34 -27,-57 397,-1074 1090,-1988 1971,-2629 855,-622 1888,-985 3001,-985 1113,0 2146,363 3002,985 880,641 1573,1555 1970,2629z"/>
   <path class="fil5" d="M12472 9500c9,-24 -3,-50 -27,-58 -23,-9 -49,3 -57,27 -392,1056 -1073,1956 -1939,2586 -841,611 -1856,968 -2949,968 -1093,0 -2108,-357 -2949,-968 -866,-630 -1548,-1530 -1939,-2586 -8,-24 -34,-36 -57,-27 -24,8 -36,34 -27,58 397,1073 1090,1988 1970,2628 856,622 1889,986 3002,986 1113,0 2146,-364 3002,-986 880,-640 1573,-1555 1970,-2628z"/>
  </g>
 </g>
</svg>
